<svg width="250" height="250" viewBox="0 0 250 250" fill="none" xmlns="http://www.w3.org/2000/svg">
<rect width="250" height="250" fill="#343A40"/>
<path fill-rule="evenodd" clip-rule="evenodd" d="M82.2 148.8H110.9C113.463 148.8 115.897 148.613 118.203 148.239C119.921 147.96 121.108 146.427 121.108 144.687V144.687C121.108 142.068 118.483 140.213 115.904 140.669C113.626 141.07 111.159 141.281 108.5 141.3V141.3C103.032 141.3 98.6 136.868 98.6 131.4V94.1C98.6 88.7981 102.898 84.5 108.2 84.5V84.5C117.4 84.5 124.367 87 129.1 92C133.9 97 136.3 104 136.3 113V113C136.3 114.753 137.684 116.232 139.436 116.232H141.863C143.793 116.232 145.4 114.73 145.4 112.8V112.8C145.4 101.667 142.133 92.9333 135.6 86.6C129.067 80.2 120.267 77 109.2 77H82.2C81.4 77 81 77.4 81 78.2V83.3C81 84.1 81.4 84.5 82.2 84.5V84.5C86.4526 84.5 89.9 87.9474 89.9 92.2V133.6C89.9 137.853 86.4526 141.3 82.2 141.3V141.3C81.4 141.3 81 141.7 81 142.5V147.6C81 148.4 81.4 148.8 82.2 148.8Z" fill="white"/>
<path d="M139.12 169.8H119.03C118.47 169.8 118.19 169.52 118.19 168.96V165.39C118.19 164.83 118.47 164.55 119.03 164.55H124.42V124.79H119.03C118.47 124.79 118.19 124.51 118.19 123.95V120.38C118.19 119.82 118.47 119.54 119.03 119.54H137.93C145.677 119.54 151.837 121.78 156.41 126.26C160.983 130.693 163.27 136.807 163.27 144.6C163.27 152.393 161.1 158.553 156.76 163.08C152.42 167.56 146.54 169.8 139.12 169.8ZM130.51 164.55H137.44C150.413 164.457 156.9 157.853 156.9 144.74C156.9 138.44 155.22 133.54 151.86 130.04C148.547 126.54 143.67 124.79 137.23 124.79H130.51V164.55Z" fill="white"/>
</svg>
