<svg width="144" height="57" viewBox="0 0 144 57" fill="none" xmlns="http://www.w3.org/2000/svg">
<path d="M40.64 28.56C40.64 27.2533 41.44 26.6 43.04 26.6C44.6133 26.6 45.4 27.2267 45.4 28.48V36.6C45.4 38.76 44.68 40.3733 43.24 41.44C42.5467 41.9467 41.8267 42.3467 41.08 42.64C40.36 42.9067 39.6533 43.04 38.96 43.04H30.64C29.9467 43.04 29.2267 42.9067 28.48 42.64C27.76 42.3467 27.0533 41.9467 26.36 41.44C25.6667 40.9067 25.1333 40.2533 24.76 39.48C24.3867 38.68 24.2 37.72 24.2 36.6V17.6C24.2 16.5067 24.3867 15.56 24.76 14.76C25.16 13.96 25.6933 13.3067 26.36 12.8H26.32C27.0133 12.3467 27.7333 11.9733 28.48 11.68C29.2267 11.3867 29.9467 11.24 30.64 11.24H38.56C39.2533 11.24 39.9733 11.3867 40.72 11.68C41.4667 11.9733 42.1867 12.3467 42.88 12.8H42.84C44.2533 13.84 44.96 15.44 44.96 17.6V20.36C44.96 21.64 44.1733 22.28 42.6 22.28C41.0267 22.28 40.24 21.64 40.24 20.36V17.96C40.24 17.2933 40.04 16.68 39.64 16.12C39.24 15.56 38.5467 15.28 37.56 15.28H31.68C30.6667 15.28 29.96 15.56 29.56 16.12C29.16 16.68 28.96 17.2933 28.96 17.96V36.28C28.96 36.6267 29 36.96 29.08 37.28C29.1867 37.6 29.3467 37.8933 29.56 38.16C29.7733 38.4 30.0533 38.6 30.4 38.76C30.7467 38.92 31.1733 39 31.68 39H37.96C38.9467 39 39.64 38.72 40.04 38.16C40.44 37.6 40.64 36.9733 40.64 36.28V28.56ZM38.76 28.12C38.76 28.5733 38.6667 29.0133 38.48 29.44C38.32 29.84 38.08 30.1867 37.76 30.48C37.4667 30.7733 37.12 31.0133 36.72 31.2C36.32 31.36 35.88 31.44 35.4 31.44C34.4933 31.44 33.72 31.12 33.08 30.48C32.44 29.84 32.12 29.0533 32.12 28.12C32.12 27.2133 32.44 26.44 33.08 25.8C33.72 25.16 34.4933 24.84 35.4 24.84C35.88 24.84 36.32 24.9333 36.72 25.12C37.12 25.28 37.4667 25.5067 37.76 25.8C38.08 26.0933 38.32 26.44 38.48 26.84C38.6667 27.24 38.76 27.6667 38.76 28.12ZM63.2238 41.4C63.2238 42.68 62.4371 43.32 60.8638 43.32C59.2904 43.32 58.5038 42.68 58.5038 41.4V30.76L49.5438 13.72C49.3838 13.3733 49.3038 13.0133 49.3038 12.64C49.3038 11.8667 49.7571 11.2933 50.6638 10.92H50.6238C51.2104 10.7067 51.6771 10.6 52.0238 10.6C52.7171 10.6 53.2504 10.9467 53.6237 11.64L60.9038 25.32C61.4371 24.3067 62.0104 23.2267 62.6238 22.08C63.2371 20.9067 63.8504 19.72 64.4638 18.52C65.1038 17.32 65.7304 16.1333 66.3438 14.96C66.9571 13.7867 67.5438 12.68 68.1038 11.64C68.3171 11.32 68.5438 11.0667 68.7838 10.88C69.0504 10.6933 69.3704 10.6 69.7438 10.6C70.1171 10.6 70.5571 10.7067 71.0638 10.92H71.0238C71.9571 11.32 72.4238 11.9067 72.4238 12.68C72.4238 12.84 72.4104 13.0133 72.3838 13.2C72.3571 13.36 72.2904 13.5333 72.1838 13.72C71.9438 14.2 71.6371 14.7867 71.2638 15.48C70.9171 16.1733 70.4104 17.1467 69.7438 18.4C69.1038 19.6267 68.2638 21.24 67.2238 23.24C66.1838 25.2133 64.8504 27.76 63.2238 30.88V41.4ZM78.9866 43.04C77.9999 43.04 77.3332 42.7867 76.9866 42.28C76.6399 41.7733 76.4666 41.2133 76.4666 40.6V13.64C76.4666 13.0267 76.6399 12.48 76.9866 12C77.3332 11.4933 77.9999 11.24 78.9866 11.24H92.9066C93.8932 11.24 94.4132 11.9067 94.4666 13.24C94.5199 14.6 93.9999 15.28 92.9066 15.28H81.1866V39H93.6266C94.6132 39 95.1199 39.6533 95.1466 40.96C95.1999 42.3467 94.6932 43.04 93.6266 43.04H78.9866ZM91.4266 26.48C91.4266 27.4133 91.0932 28.2 90.4266 28.84C89.7866 29.48 88.9999 29.8 88.0666 29.8C87.1599 29.8 86.3866 29.48 85.7466 28.84C85.1066 28.2 84.7866 27.4133 84.7866 26.48C84.7866 25.5467 85.1066 24.76 85.7466 24.12C86.3866 23.48 87.1599 23.16 88.0666 23.16C88.9999 23.16 89.7866 23.48 90.4266 24.12C91.0932 24.76 91.4266 25.5467 91.4266 26.48ZM116.393 12.96C116.393 11.68 117.18 11.04 118.753 11.04C120.353 11.04 121.153 11.68 121.153 12.96V41.32C121.153 42.6 120.353 43.24 118.753 43.24C117.18 43.24 116.393 42.6 116.393 41.32V12.96ZM104.233 41.32C104.233 42.6 103.433 43.24 101.833 43.24C100.26 43.24 99.4734 42.6 99.4734 41.32V12.96C99.4734 11.68 100.26 11.04 101.833 11.04C103.433 11.04 104.233 11.68 104.233 12.96V41.32ZM113.593 26.48C113.593 27.4133 113.273 28.2 112.633 28.84C111.993 29.48 111.207 29.8 110.273 29.8C109.367 29.8 108.593 29.48 107.953 28.84C107.313 28.2 106.993 27.4133 106.993 26.48C106.993 25.5467 107.313 24.76 107.953 24.12C108.593 23.48 109.367 23.16 110.273 23.16C111.207 23.16 111.993 23.48 112.633 24.12C113.273 24.76 113.593 25.5467 113.593 26.48Z" fill="black"/>
</svg>
